<?xml version="1.0" encoding="UTF-8"?> <svg xmlns="http://www.w3.org/2000/svg" width="133" height="136" viewBox="0 0 133 136" fill="none"><path fill-rule="evenodd" clip-rule="evenodd" d="M96.475 117.32C110.133 109.435 119.289 96.7458 123.042 82.6193L132.716 85.3433C128.278 101.905 117.522 116.773 101.5 126.024C69.4544 144.525 28.4779 133.546 9.97632 101.5C-8.52522 69.4544 2.45442 28.4778 34.5 9.97629C66.5456 -8.52525 107.522 2.45438 126.024 34.5C126.926 36.0625 127.758 37.6462 128.521 39.2475L119.785 44.2913L105.187 52.719L96.3793 57.8044L77.6429 68.6219L44.9807 87.4794C54.218 98.421 70.2387 101.522 83.075 94.1107C90.4298 89.8644 95.3187 82.9873 97.2393 75.3543L106.916 78.0789C104.308 88.147 97.8186 97.2032 88.1 102.814C68.8727 113.915 44.2867 107.327 33.1858 88.1C32.2771 86.5261 31.487 84.9163 30.8126 83.281L39.6207 78.1956L52.5548 70.7281L77.505 56.3231L91.0193 48.5206L99.8275 43.4352L102.455 41.9181L114.425 35.0076C97.6156 11.2963 65.1984 3.85732 39.525 18.6798C12.2863 34.4062 2.95357 69.2362 18.6799 96.475C34.4062 123.714 69.2363 133.046 96.475 117.32ZM38.8012 60.4866L29.0737 57.9608C31.6751 47.8768 38.1687 38.8042 47.9 33.1858C57.4849 27.6519 68.4015 26.5138 78.3153 29.146L75.6388 38.8337C68.2295 36.8929 60.0822 37.7571 52.925 41.8893C45.6214 46.1061 40.7494 52.9172 38.8012 60.4866Z" fill="#081D46"></path></svg> 